<?xml version="1.0" standalone="no"?>
<!DOCTYPE svg PUBLIC "-//W3C//DTD SVG 20010904//EN"
 "http://www.w3.org/TR/2001/REC-SVG-20010904/DTD/svg10.dtd">
<svg version="1.0" xmlns="http://www.w3.org/2000/svg"
 width="198.000000pt" height="198.000000pt" viewBox="0 0 198.000000 198.000000"
 preserveAspectRatio="xMidYMid meet">
<metadata>
Created by potrace 1.14, written by Peter Selinger 2001-2017
</metadata>
<g transform="translate(0.000000,198.000000) scale(0.100000,-0.100000)"
fill="#000000" stroke="none">
<path d="M1305 1875 c0 -33 2 -35 33 -35 30 0 32 2 32 35 0 33 -2 35 -32 35
-31 0 -33 -2 -33 -35z"/>
<path d="M860 1815 c0 -32 -2 -35 -30 -35 -27 0 -30 -3 -30 -30 0 -28 -3 -30
-35 -30 l-35 0 0 -65 0 -65 -30 0 -30 0 0 -95 0 -95 30 0 c27 0 30 -3 30 -30
0 -27 -3 -30 -30 -30 l-30 0 -2 -222 -3 -223 -25 0 c-25 0 -25 2 -30 95 l-5
95 -128 0 -127 0 0 -32 c0 -30 -3 -33 -30 -33 -32 0 -32 2 -32 -95 0 -97 0
-95 32 -95 27 0 30 -3 30 -33 0 -32 2 -33 30 -29 29 4 30 3 30 -32 0 -34 1
-36 35 -36 32 0 35 -2 35 -30 0 -27 3 -30 30 -30 27 0 30 -3 30 -32 l0 -33 95
2 95 2 0 -65 0 -64 -30 0 c-28 0 -30 3 -30 35 0 33 -2 35 -33 35 -30 0 -32 -2
-32 -32 0 -30 -3 -33 -32 -36 -29 -3 -33 -7 -33 -33 0 -25 -4 -29 -29 -29 -26
0 -30 -4 -33 -32 -3 -30 -6 -33 -35 -33 l-33 0 0 -62 0 -63 -30 0 -30 0 0 -65
0 -65 290 0 290 0 0 95 0 95 30 0 c27 0 30 3 30 30 0 27 3 30 30 30 27 0 30
-3 30 -30 0 -27 3 -30 30 -30 l30 0 0 -95 0 -95 290 0 290 0 0 65 0 65 -30 0
c-27 0 -30 3 -30 30 l0 30 -65 0 -65 0 0 33 c0 32 -2 33 -30 29 -29 -4 -30 -3
-30 32 0 34 -1 36 -35 36 -32 0 -35 2 -35 30 l0 30 95 0 95 0 0 30 c0 28 3 30
35 30 l35 0 0 130 0 130 -35 0 -35 0 0 63 c0 62 0 63 -27 62 -24 0 -28 4 -31
33 l-3 32 -65 0 -64 0 0 60 0 60 35 0 35 0 0 100 c0 99 0 100 -22 95 -31 -7
-50 8 -46 36 2 20 9 24 36 24 l32 0 0 68 c0 62 -2 68 -19 62 -43 -13 -51 2
-51 96 l0 89 35 0 35 0 0 65 0 65 -35 0 -34 0 -3 -62 c-3 -60 -4 -63 -30 -66
-21 -3 -28 -9 -29 -25 0 -12 -1 -55 -2 -95 l-2 -72 33 0 32 0 0 -60 0 -60 -33
0 c-30 0 -32 -2 -32 -32 0 -30 -3 -33 -32 -36 -29 -3 -33 -7 -33 -33 0 -27 3
-29 35 -29 32 0 35 2 35 30 0 27 3 30 30 30 l30 0 0 -90 0 -90 -35 0 -35 0 0
-65 0 -65 -30 0 c-27 0 -30 -3 -30 -30 0 -27 -3 -30 -32 -30 l-33 0 3 -65 4
-65 -36 0 c-33 0 -36 -2 -36 -30 0 -27 -3 -30 -29 -30 -29 0 -30 1 -30 56 0
31 -1 58 -4 60 -4 4 -92 7 -154 5 l-33 -1 0 -60 0 -60 -30 0 c-27 0 -30 3 -30
30 0 27 -3 30 -30 30 l-30 0 0 279 0 278 48 6 c26 3 81 4 122 4 l75 -2 0 -32
0 -33 97 0 98 0 0 160 0 160 33 0 32 0 0 62 0 63 33 3 c28 3 32 7 32 33 0 27
-3 29 -35 29 -32 0 -35 -2 -35 -30 0 -27 -3 -30 -30 -30 l-30 0 0 -65 0 -65
-35 0 c-32 0 -35 -2 -35 -30 0 -27 -3 -30 -30 -30 -27 0 -30 3 -30 30 0 27 -3
30 -30 30 l-30 0 0 65 0 65 29 0 c25 0 29 4 32 33 2 17 3 47 1 65 -3 28 -7 32
-33 32 l-29 0 0 -65 0 -65 -35 0 -35 0 0 -65 0 -65 -30 0 c-29 0 -29 -1 -32
-62 -3 -60 -4 -63 -30 -66 -21 -3 -27 -9 -30 -30 -2 -21 -9 -28 -30 -30 l-28
-3 0 95 0 96 30 0 30 0 0 65 0 65 30 0 c27 0 30 3 30 30 0 28 3 30 35 30 33 0
35 2 35 33 0 32 -2 34 -35 35 -34 1 -35 0 -35 -33z m130 -255 c0 -27 -3 -30
-30 -30 -27 0 -30 3 -30 30 0 27 3 30 30 30 27 0 30 -3 30 -30z m-510 -570 c0
-27 3 -30 30 -30 28 0 30 -3 30 -35 0 -32 -2 -35 -30 -35 -27 0 -30 -3 -30
-30 l0 -30 95 0 95 0 0 -35 c0 -32 2 -35 30 -35 30 0 30 0 30 -59 l0 -58 -90
-1 -90 0 0 34 c0 32 -2 34 -35 34 -32 0 -35 2 -35 30 0 27 -3 30 -30 30 l-30
0 0 63 0 62 -32 0 c-30 0 -33 3 -33 30 0 27 4 30 33 33 28 3 32 7 32 33 0 26
3 29 30 29 27 0 30 -3 30 -30z m1010 -165 l0 -65 35 0 35 0 0 -120 0 -120 -94
0 -94 0 -1 60 0 60 35 0 c32 0 34 2 34 35 l0 35 -65 0 -65 0 0 90 0 90 90 0
90 0 0 -65z m-630 -215 c0 -27 -3 -30 -30 -30 -27 0 -30 3 -30 30 0 27 3 30
30 30 27 0 30 -3 30 -30z m447 -32 c2 -54 1 -58 -22 -64 -36 -9 -44 1 -43 59
0 64 3 69 36 65 25 -3 27 -6 29 -60z m-257 -97 c0 -30 0 -30 -60 -30 -49 1
-60 4 -65 20 -10 31 3 39 66 39 59 0 59 0 59 -29z m320 -1 c0 -27 -3 -30 -30
-30 -27 0 -30 3 -30 30 0 27 3 30 30 30 27 0 30 -3 30 -30z m-700 -60 c0 -27
-3 -30 -30 -30 -27 0 -30 3 -30 30 0 27 3 30 30 30 27 0 30 -3 30 -30z m128 3
c-2 -22 -9 -29 -30 -31 -25 -3 -28 0 -28 27 0 28 3 31 31 31 27 0 30 -3 27
-27z m-198 -68 c0 -20 -5 -25 -25 -25 -20 0 -25 5 -25 25 0 20 5 25 25 25 20
0 25 -5 25 -25z m-60 -65 c0 -27 -3 -30 -30 -30 -27 0 -30 3 -30 30 0 27 3 30
30 30 27 0 30 -3 30 -30z"/>
<path d="M795 1085 l0 -65 35 0 35 0 0 65 0 65 -35 0 -35 0 0 -65z"/>
<path d="M920 1085 l0 -65 65 0 65 0 0 65 0 65 -65 0 -65 0 0 -65z"/>
</g>
</svg>
